<svg width="24" height="24" viewBox="0 0 24 24" fill="none" xmlns="http://www.w3.org/2000/svg">
<path fill-rule="evenodd" clip-rule="evenodd" d="M12.3716 0.388385C12.5691 0.177978 12.9032 0.177977 13.1007 0.388385L23.6788 11.6578C23.8594 11.8502 23.8594 12.1498 23.6788 12.3422L13.1007 23.6116C12.9032 23.822 12.5691 23.822 12.3716 23.6116L12.3559 23.5948C12.1753 23.4024 12.1753 23.1028 12.3559 22.9104L22.1009 12.5285H0.5C0.223858 12.5285 0 12.3046 0 12.0285V11.9715C0 11.6954 0.223858 11.4715 0.500001 11.4715H22.1009L12.3559 1.08956C12.1753 0.897171 12.1753 0.597564 12.3559 0.405174L12.3716 0.388385Z" fill="white"/>
</svg>
