<svg width="159" height="36" viewBox="0 0 159 36" fill="none" xmlns="http://www.w3.org/2000/svg">
<path d="M95.9871 31.3181C95.9871 31.5637 96.1132 31.6862 96.2392 31.6862C96.3652 31.6862 96.4913 31.6862 96.6173 31.5637L143.25 2.10423C144.007 1.61301 145.015 1.24486 146.023 1.24486H156.232C157.618 1.12232 158.753 2.22677 158.879 3.57736V22.8485C158.879 25.1805 158.375 26.5311 156.232 27.7586L143.755 35.0007C143.629 35.1232 143.503 35.1232 143.376 35.1232C143.25 35.1232 143.124 35.0007 143.124 34.632V12.4151C143.124 12.1695 142.998 12.0469 142.872 12.0469C142.746 12.0469 142.62 12.047 142.494 12.1695L108.338 33.7731C107.583 34.2638 106.574 34.5094 105.692 34.5094H83.0052C81.6188 34.632 80.4849 33.5275 80.3589 32.1775V4.4362C80.3589 4.31366 80.2328 4.06806 80.1068 4.06806C79.9808 4.06806 79.8547 4.06805 79.7287 4.19113L57.4202 17.4477C57.2941 17.4477 57.1681 17.6933 57.1681 17.8159C57.1681 17.9384 57.2941 18.0615 57.4202 18.184L73.5526 33.8957C73.6786 34.0182 73.8047 34.2638 73.9307 34.3869C73.9307 34.632 73.6786 34.632 73.4265 34.632H58.6806C57.6723 34.755 56.79 34.5094 56.0337 33.8957L46.329 24.4442C46.2029 24.1986 46.2029 24.1986 46.0769 24.1986C45.9508 24.1986 45.8248 24.1986 45.8248 24.3216L29.4403 33.8957C28.6841 34.3869 27.6758 34.632 26.7936 34.632H11.9214C10.535 34.755 9.40069 33.6501 9.27465 32.3V13.2739C9.02257 11.3101 10.0309 9.34629 11.9214 8.36438L24.3989 1.12232C24.3989 0.876709 24.525 0.876709 24.651 0.876709C24.777 0.876709 24.903 1.12232 24.903 1.49047V26.6536C24.903 26.8992 25.0291 27.0218 25.1551 27.0218C25.2812 27.0218 25.4072 26.8992 25.5333 26.8992L67.8812 1.98169C68.7635 1.49047 69.6458 1.12232 70.6541 1.24486H93.3402C94.7267 1.12232 95.8611 2.22677 95.9871 3.57736V31.3181Z" fill="white"/>
</svg>
