<svg width="172" height="18" viewBox="0 0 172 18" fill="none" xmlns="http://www.w3.org/2000/svg">
<path d="M28.0721 8.09515C28.1658 7.93583 28.2174 7.79526 28.3064 7.69217C30.0917 5.71006 31.9145 3.76075 33.6623 1.74584C34.2527 1.06171 34.8994 0.963311 35.7241 1.09451C35.7241 6.41294 35.7241 11.736 35.7241 17.092C34.3652 17.092 33.0297 17.092 31.6521 17.092C31.6521 14.7678 31.6521 12.4342 31.6521 10.1054C31.6193 10.0866 31.5912 10.0679 31.5584 10.0538C31.3522 10.2694 31.146 10.4896 30.9398 10.7052C30.1245 11.5486 29.3138 12.3921 28.4891 13.2261C28.058 13.6619 27.9596 13.6666 27.5379 13.2261C26.5539 12.1953 25.5792 11.1597 24.5343 10.0538C24.5343 12.4436 24.5343 14.7584 24.5343 17.092C24.3797 17.106 24.2766 17.1248 24.1688 17.1248C23.0395 17.1248 21.9055 17.1154 20.7763 17.1341C20.4717 17.1388 20.3498 17.0591 20.3498 16.7358C20.3498 11.633 20.3405 6.5254 20.3264 1.42252C20.3264 1.11794 20.4482 1.07108 20.7247 1.03828C21.5026 0.939877 22.0321 1.21634 22.5428 1.82081C24.1922 3.77012 25.9072 5.66789 27.5988 7.57971C27.7113 7.71091 27.8378 7.84212 28.0721 8.09515Z" fill="white"/>
<path d="M57.4338 17.1668C57.4338 16.9325 57.4338 16.7919 57.4338 16.6561C57.4338 11.6375 57.4385 6.61431 57.4244 1.59578C57.4244 1.1928 57.551 1.09909 57.9258 1.09909C59.8751 1.11314 61.8338 1.03348 63.7784 1.1272C67.499 1.30526 70.2636 3.77001 70.9103 7.42965C71.3742 10.0397 70.8915 12.4622 69.1531 14.5334C67.9207 16.0047 66.3088 16.8903 64.397 17.0075C62.1056 17.1434 59.7955 17.12 57.4338 17.1668ZM61.5245 13.3947C62.2462 13.3947 62.9256 13.4181 63.6004 13.39C65.0295 13.3338 66.0557 12.6356 66.6883 11.3658C67.2834 10.1756 67.3537 8.91506 66.9789 7.65925C66.5571 6.23945 65.7231 5.1289 64.1533 4.8993C63.3005 4.77747 62.4149 4.87587 61.5199 4.87587C61.5245 7.70143 61.5245 10.527 61.5245 13.3947Z" fill="white"/>
<path d="M137.566 1.05229C138.887 1.05229 140.157 1.05698 141.427 1.04761C141.741 1.04761 141.708 1.25847 141.708 1.45059C141.708 3.12812 141.704 4.80565 141.708 6.48318C141.708 6.73621 141.76 6.99393 141.788 7.24697C141.835 7.25634 141.882 7.26571 141.928 7.27509C142.06 7.08765 142.205 6.90959 142.327 6.71747C143.442 4.9228 144.553 3.11875 145.672 1.32876C145.743 1.21161 145.902 1.07572 146.019 1.07572C147.481 1.05698 148.948 1.06635 150.494 1.06635C150.297 1.40842 150.138 1.69894 149.965 1.98009C148.76 3.90597 147.561 5.83185 146.338 7.74367C146.146 8.04356 146.164 8.25442 146.338 8.54026C147.762 10.8597 149.177 13.1839 150.588 15.5081C150.794 15.8455 151 16.1875 151.155 16.5484C151.328 16.9513 151.197 17.12 150.761 17.12C149.543 17.12 148.329 17.1153 147.111 17.1247C146.853 17.1294 146.708 17.0404 146.582 16.8154C145.579 15.002 144.553 13.2027 143.554 11.3892C143.372 11.0612 143.166 10.9019 142.786 10.9441C142.425 10.9863 141.952 10.8691 141.736 11.0612C141.554 11.2206 141.661 11.7173 141.657 12.0687C141.647 13.6056 141.647 15.1426 141.638 16.6796C141.638 16.8154 141.619 16.9513 141.605 17.1013C140.246 17.1013 138.92 17.1013 137.561 17.1013C137.566 11.7688 137.566 6.43163 137.566 1.05229Z" fill="white"/>
<path d="M51.6607 4.74924C51.3373 4.74924 51.089 4.74924 50.836 4.74924C49.2803 4.75392 47.7246 4.7633 46.1689 4.75861C45.883 4.75861 45.7612 4.81016 45.7846 5.13348C45.8174 5.62549 45.8127 6.12219 45.7893 6.6142C45.7753 6.93753 45.8924 7.02187 46.2017 7.02187C47.7574 7.0125 49.3131 7.02656 50.8641 7.03124C50.9437 7.03124 51.0281 7.04061 51.1593 7.0453C51.1593 7.21399 51.1593 7.36394 51.1593 7.51388C51.1593 8.41825 51.1405 9.31793 51.164 10.2223C51.1733 10.5878 51.0843 10.7096 50.6954 10.7049C49.21 10.6815 47.7246 10.7049 46.2438 10.6909C45.9065 10.6862 45.7659 10.7612 45.7799 11.1313C45.8081 11.778 45.7987 12.4293 45.7753 13.076C45.7612 13.4133 45.8737 13.5117 46.211 13.5071C47.9354 13.493 49.6598 13.5071 51.3842 13.4883C51.731 13.4836 51.8528 13.5727 51.8434 13.9335C51.8153 14.8753 51.82 15.8219 51.8247 16.7684C51.8247 17.0027 51.7825 17.1339 51.5014 17.1339C48.2916 17.1292 45.0864 17.1292 41.8345 17.1292C41.8345 11.7921 41.8345 6.47363 41.8345 1.12709C41.9188 1.11303 42.0125 1.0896 42.1063 1.0896C45.1474 1.09897 48.1838 1.11771 51.2249 1.11771C51.5529 1.11771 51.6654 1.19269 51.6607 1.53944C51.6466 2.57501 51.6607 3.61526 51.6607 4.74924Z" fill="white"/>
<path d="M126.404 10.6726C126.404 11.6425 126.404 12.5375 126.404 13.47C128.414 13.47 130.392 13.47 132.402 13.47C132.402 14.693 132.402 15.8785 132.402 17.0922C129.098 17.0922 125.786 17.0922 122.407 17.0922C122.407 16.7454 122.407 16.408 122.407 16.0753C122.407 11.2114 122.407 6.34754 122.393 1.48364C122.393 1.16032 122.501 1.07129 122.805 1.07129C125.79 1.08066 128.77 1.08534 131.755 1.07597C132.149 1.07597 132.266 1.21186 132.257 1.5961C132.238 2.49578 132.247 3.40015 132.271 4.30451C132.28 4.64189 132.186 4.76841 131.821 4.76373C130.04 4.74499 128.26 4.75436 126.432 4.75436C126.432 5.49003 126.432 6.21165 126.432 6.97544C128.199 6.97544 129.956 6.97544 131.737 6.97544C131.737 8.2125 131.737 9.42145 131.737 10.6726C129.97 10.6726 128.199 10.6726 126.404 10.6726Z" fill="white"/>
<path d="M103.95 17.12C102.717 17.12 101.532 17.1294 100.346 17.1059C100.22 17.1059 100.046 16.9607 99.9855 16.8388C99.7278 16.3375 99.5122 15.8173 99.2592 15.3159C99.2029 15.2128 99.0389 15.1004 98.9218 15.1004C97.0006 15.0863 95.0747 15.0863 93.1535 15.1004C93.0176 15.1004 92.8161 15.241 92.7505 15.3675C92.4975 15.8548 92.3007 16.3703 92.057 16.8623C92.0055 16.97 91.8696 17.1059 91.7712 17.1059C90.5716 17.12 89.3674 17.1059 88.1678 17.1012C88.1444 17.1012 88.1209 17.0731 88.0272 17.0169C88.0788 16.792 88.1022 16.5249 88.2053 16.2906C89.1425 14.1632 90.0843 12.0405 91.0449 9.92723C92.3569 7.04544 93.6877 4.17302 94.9951 1.28655C95.1309 0.981966 95.3043 0.906998 95.623 0.86014C96.5367 0.728936 96.9772 1.071 97.3614 1.94257C99.3997 6.56749 101.532 11.1549 103.626 15.7517C103.753 16.0329 103.865 16.3234 103.95 16.6186C103.982 16.7685 103.95 16.9372 103.95 17.12ZM94.1844 11.5438C95.384 11.5438 96.5601 11.5438 97.8019 11.5438C97.2161 10.1568 96.6398 8.80263 96.0681 7.44373C96.0259 7.44373 95.9838 7.43905 95.9416 7.43905C95.3606 8.78857 94.7889 10.1334 94.1844 11.5438Z" fill="white"/>
<path d="M171.238 17.1199C169.879 17.1199 168.68 17.1152 167.475 17.1246C167.185 17.1293 167.138 16.9372 167.058 16.7404C165.934 13.9945 164.805 11.2439 163.675 8.49796C163.539 8.16527 163.389 7.83258 163.127 7.46708C162.532 8.82129 161.941 10.1802 161.304 11.6328C161.867 11.6328 162.34 11.6094 162.813 11.6468C162.977 11.6609 163.221 11.7687 163.277 11.8999C163.708 12.8933 164.106 13.9007 164.514 14.9035C164.528 14.941 164.523 14.9832 164.537 15.0722C164.397 15.0816 164.266 15.0956 164.134 15.0956C162.893 15.0956 161.646 15.105 160.405 15.0909C160.123 15.0863 159.969 15.1659 159.861 15.433C159.674 15.9016 159.458 16.3655 159.224 16.8106C159.153 16.9465 158.971 17.1105 158.835 17.1105C157.635 17.134 156.436 17.1246 155.105 17.1246C155.217 16.731 155.269 16.3749 155.414 16.0609C156.515 13.6102 157.635 11.1642 158.746 8.7182C159.894 6.19253 161.037 3.67156 162.199 1.15058C162.255 1.03343 162.429 0.902227 162.56 0.892856C163.938 0.789767 163.938 0.794452 164.505 2.04088C166.595 6.62832 168.68 11.2111 170.76 15.8032C170.943 16.1968 171.065 16.6232 171.238 17.1199Z" fill="white"/>
<path d="M16.0858 17.12C14.7269 17.12 13.4993 17.1294 12.2716 17.106C12.1638 17.106 12.0185 16.9467 11.9623 16.8295C11.728 16.3656 11.5125 15.8877 11.3157 15.4097C11.2126 15.1614 11.0579 15.0817 10.7955 15.0864C9.5819 15.0958 8.36358 15.0911 7.14995 15.0911C6.99531 15.0911 6.84068 15.0911 6.62513 15.0911C6.80788 14.6459 6.97189 14.2429 7.1312 13.8446C7.37487 13.2449 7.64196 12.6544 7.84814 12.0406C7.95122 11.736 8.11992 11.647 8.40575 11.647C8.86496 11.6517 9.32886 11.647 9.86773 11.647C9.2492 10.2272 8.64941 8.84017 7.99808 7.34071C7.67945 8.11856 7.41704 8.76052 7.15463 9.39779C6.14249 11.8579 5.13035 14.3179 4.10415 16.7686C4.04792 16.9092 3.87455 17.0966 3.74803 17.0966C2.5344 17.12 1.32077 17.1107 -0.0100098 17.1107C0.111822 16.7171 0.182109 16.3656 0.32737 16.047C1.57849 13.2777 2.83898 10.513 4.09478 7.74369C5.05538 5.63038 6.02066 3.51706 6.9672 1.39906C7.10778 1.0898 7.27646 0.991396 7.62322 0.944538C8.5229 0.827392 8.97742 1.15072 9.35698 2.00822C11.4375 6.70343 13.6023 11.3658 15.725 16.0423C15.875 16.3609 15.9499 16.703 16.0858 17.12Z" fill="white"/>
<path d="M77.7464 4.65595C77.3059 4.65595 76.8561 4.6419 76.4062 4.66064C76.1391 4.67001 76.022 4.59503 76.0267 4.30451C76.036 3.36266 76.0313 2.41612 76.0126 1.47427C76.0079 1.19312 76.0829 1.07129 76.3922 1.07129C78.6835 1.08535 80.9749 1.09003 83.2616 1.07597C83.6411 1.07597 83.7442 1.20249 83.7349 1.56799C83.7114 2.45361 83.7161 3.34392 83.7396 4.23423C83.7489 4.57629 83.6318 4.67938 83.3038 4.66064C82.8446 4.63721 82.3807 4.65595 81.8933 4.65595C81.8933 7.59866 81.8933 10.5226 81.8933 13.4888C82.554 13.4888 83.2007 13.4888 83.8754 13.4888C83.8754 14.7024 83.8754 15.8785 83.8754 17.0875C83.7677 17.0968 83.6599 17.1203 83.5521 17.1203C81.1342 17.1203 78.7163 17.1109 76.2984 17.125C75.9423 17.125 75.8392 17.0219 75.8486 16.6704C75.8673 15.7426 75.8627 14.8102 75.8439 13.8777C75.8392 13.5825 75.9329 13.47 76.2328 13.4841C76.6686 13.5028 77.1091 13.5028 77.5449 13.47C77.648 13.4653 77.826 13.3107 77.826 13.2263C77.826 10.4195 77.812 7.6174 77.7979 4.81058C77.7979 4.7731 77.7698 4.73561 77.7464 4.65595Z" fill="white"/>
<path d="M113.448 4.77779C113.448 8.88726 113.448 12.9733 113.448 17.0875C112.126 17.0875 110.833 17.0875 109.484 17.0875C109.484 12.9967 109.484 8.91537 109.484 4.78715C109.277 4.77778 109.128 4.76373 108.982 4.76373C107.979 4.76373 106.972 4.75904 105.969 4.7731C105.697 4.77778 105.594 4.7075 105.599 4.41698C105.613 3.42826 105.613 2.44424 105.594 1.45552C105.59 1.15563 105.688 1.07129 105.983 1.07129C109.563 1.08066 113.139 1.08066 116.719 1.08535C117.323 1.08535 117.323 1.09472 117.323 1.69919C117.323 2.56138 117.318 3.41889 117.342 4.28108C117.351 4.64189 117.257 4.78247 116.869 4.7731C115.88 4.74967 114.891 4.76373 113.898 4.76841C113.757 4.75904 113.617 4.7731 113.448 4.77779Z" fill="white"/>
</svg>
