<svg width="178" height="50" viewBox="0 0 178 50" fill="none" xmlns="http://www.w3.org/2000/svg">
<path d="M7.1323 19.9657C6.01504 24.6581 6.34774 29.2066 8.52267 33.5565C11.9738 40.4487 19.2037 44.4957 26.8855 43.8204C28.9462 43.6416 30.9076 43.0557 32.8044 42.2562C33.1173 44.1382 33.5344 45.9953 34.0558 47.8326C31.856 48.8058 29.5371 49.3223 27.1536 49.4861C19.3824 50.0174 12.7683 47.4453 7.44017 41.7895C3.63652 37.7475 1.52614 32.8712 0.999789 27.3296C0.999789 26.8331 1.0842 26.3266 0.880615 25.84C0.880615 25.1398 0.880615 24.4446 0.880615 23.7445C1.10407 23.4316 0.994825 23.0841 0.994825 22.7464C1.15372 21.1226 1.38711 19.5138 1.95815 17.9695C3.68618 18.6398 5.40924 19.3052 7.1323 19.9657Z" fill="white"/>
<path d="M27.4171 0.560007C32.1195 1.00691 36.3204 2.71508 40.0446 5.61499C40.3376 5.84341 40.3475 5.94768 40.0347 6.1761C38.7684 7.08977 37.5072 8.01337 36.2856 8.98166C35.8437 9.32926 35.5557 9.34912 35.0641 9.03629C28.147 4.59208 19.0302 5.31208 12.9324 10.7544C11.8897 11.6879 10.9512 12.7158 10.0772 13.8082C8.29457 13.1776 6.52682 12.5023 4.79382 11.7376C4.82858 11.6631 4.84844 11.5836 4.89313 11.5141C9.19831 5.11842 15.162 1.44885 22.8338 0.56497C23.4545 0.574901 24.0802 0.599734 24.691 0.445801C25.2273 0.445801 25.7586 0.445801 26.2949 0.445801C26.6524 0.639459 27.0397 0.569939 27.4171 0.560007Z" fill="white"/>
<path d="M22.8384 0.56497C22.8384 0.525245 22.8433 0.485526 22.8433 0.445801C23.4591 0.445801 24.0748 0.445801 24.6955 0.445801C24.0798 0.599734 23.4591 0.574901 22.8384 0.56497Z" fill="white"/>
<path d="M0.885742 25.845C1.08933 26.3266 0.999951 26.8331 1.00492 27.3346L0.94533 27.3198L0.885742 27.3247C0.885742 26.8331 0.885742 26.3366 0.885742 25.845Z" fill="white"/>
<path d="M27.4171 0.560007C27.0397 0.569939 26.6573 0.639459 26.2998 0.445801C26.6722 0.445801 27.0397 0.445801 27.4121 0.445801C27.3922 0.485526 27.3972 0.525248 27.4171 0.560007Z" fill="white"/>
<path d="M0.885742 22.7612C0.925467 22.7711 0.965192 22.7661 0.999951 22.7512C0.999951 23.0889 1.10423 23.4365 0.885742 23.7493C0.885742 23.4216 0.885742 23.0938 0.885742 22.7612Z" fill="white"/>
<path d="M94.2881 24.7176C94.2881 19.8067 94.2931 14.9007 94.2782 9.98969C94.2782 9.48817 94.3874 9.33423 94.9138 9.33423C103.301 9.34913 111.683 9.34416 120.07 9.34912C120.228 9.34912 120.506 9.34416 120.521 9.39382C120.581 9.62224 120.323 9.66196 120.194 9.75631C118.188 11.2559 116.167 12.7406 114.16 14.2402C113.897 14.4389 113.629 14.5034 113.311 14.5034C109.384 14.4935 105.461 14.5034 101.533 14.4885C101.076 14.4885 100.902 14.563 100.912 15.0745C100.947 16.9614 100.947 18.8533 100.912 20.7452C100.902 21.2765 101.071 21.3758 101.568 21.3708C104.507 21.3609 107.447 21.3659 110.382 21.4106C111.846 21.4354 113.282 21.7135 114.662 22.2051C118.555 23.5954 120.581 26.7238 120.343 30.9395C120.07 35.7512 117.13 38.8746 112.045 39.7733C110.685 40.0117 109.319 40.1259 107.939 40.1259C103.604 40.1259 99.2636 40.116 94.9287 40.1358C94.4272 40.1358 94.2732 40.0216 94.2782 39.5002C94.2981 34.5793 94.2881 29.6485 94.2881 24.7176ZM105.173 34.9915C105.173 34.9766 105.173 34.9617 105.173 34.9418C106.528 34.9418 107.884 34.9617 109.24 34.9319C109.686 34.922 110.133 34.8127 110.575 34.7184C112.691 34.2615 113.932 32.9159 114.002 31.014C114.081 28.859 113.123 27.4835 111.077 26.8777C110.59 26.7337 110.079 26.6294 109.572 26.5847C106.826 26.3414 104.07 26.5351 101.319 26.4655C100.897 26.4556 100.927 26.6791 100.927 26.9571C100.932 29.4598 100.942 31.9674 100.917 34.4701C100.912 34.922 101.066 35.0064 101.478 34.9964C102.705 34.9766 103.936 34.9915 105.173 34.9915Z" fill="white"/>
<path d="M152.302 24.6729C152.302 19.7817 152.312 14.8956 152.292 10.0045C152.292 9.50296 152.406 9.34406 152.933 9.35399C157.555 9.42351 162.183 9.22985 166.801 9.4682C169.081 9.58737 171.261 10.1832 173.217 11.4097C176.921 13.7287 178.287 17.2145 177.964 21.4154C177.621 25.8497 175.233 28.8191 171.102 30.4081C169.14 31.1629 167.089 31.4261 164.999 31.4211C163.191 31.4161 161.379 31.436 159.572 31.4112C159.07 31.4012 158.906 31.5303 158.911 32.0517C158.936 34.5594 158.916 37.062 158.931 39.5696C158.936 39.9967 158.866 40.1705 158.375 40.1606C156.547 40.1258 154.715 40.1258 152.888 40.1606C152.376 40.1705 152.287 39.9967 152.292 39.5349C152.307 34.5743 152.302 29.6236 152.302 24.6729ZM158.926 20.3528C158.926 22.1404 158.941 23.923 158.916 25.7107C158.911 26.1476 159.01 26.3214 159.487 26.3165C161.23 26.2867 162.978 26.3214 164.726 26.3016C166.151 26.2867 167.551 26.1178 168.822 25.3929C170.878 24.221 171.797 21.7729 171.251 18.9326C170.789 16.5193 169.11 14.9701 166.503 14.6374C164.09 14.3295 161.662 14.5679 159.244 14.4983C158.822 14.4884 158.926 14.7764 158.926 14.9999C158.921 16.7825 158.926 18.5652 158.926 20.3528Z" fill="white"/>
<path d="M124.624 24.7176C124.624 19.8264 124.633 14.9353 124.609 10.0492C124.604 9.46324 124.787 9.354 125.329 9.354C132.608 9.37387 139.883 9.36393 147.162 9.3689C147.336 9.3689 147.51 9.40862 147.684 9.43345C147.555 9.55759 147.44 9.69663 147.301 9.8009C145.305 11.2807 143.304 12.7505 141.308 14.2352C141.05 14.4288 140.787 14.5133 140.459 14.5083C137.579 14.4984 134.704 14.5133 131.824 14.4884C131.352 14.4835 131.248 14.6126 131.253 15.0694C131.277 17.2046 131.282 19.3448 131.253 21.48C131.248 21.9666 131.402 22.0411 131.839 22.0361C136.154 22.0212 140.474 22.0411 144.789 22.0113C145.355 22.0063 145.464 22.1702 145.449 22.6966C145.41 23.9876 145.414 25.2836 145.449 26.5797C145.464 27.0613 145.305 27.1557 144.858 27.1507C140.563 27.1358 136.268 27.1557 131.968 27.1259C131.347 27.1209 131.238 27.3046 131.248 27.8757C131.282 30.0307 131.282 32.1908 131.248 34.3459C131.238 34.8772 131.357 35.0261 131.913 35.0261C137.013 35.0013 142.107 35.0212 147.207 34.9963C147.748 34.9963 147.907 35.1255 147.887 35.6766C147.843 36.9925 147.863 38.3084 147.882 39.6193C147.887 39.9967 147.813 40.1556 147.386 40.1506C139.967 40.1357 132.544 40.1357 125.125 40.1506C124.638 40.1506 124.614 39.952 124.619 39.5697C124.624 34.6239 124.624 29.6683 124.624 24.7176Z" fill="white"/>
<path d="M78.1256 8.98657C82.3712 9.04119 85.8769 10.0244 88.8662 12.532C89.2386 12.8448 89.1889 12.9541 88.8314 13.2073C87.5751 14.1011 86.3337 15.0098 85.1122 15.9533C84.7547 16.2314 84.5163 16.2066 84.1538 15.9781C79.8188 13.2322 73.6417 14.2451 70.6822 18.2971C68.2838 21.5793 68.0305 25.2092 69.7288 28.849C71.3724 32.3795 74.3865 34.0132 78.205 34.2466C80.6829 34.3955 82.967 33.75 85.0675 32.4689C85.6137 32.1362 85.9762 32.1759 86.4579 32.5732C87.446 33.3776 88.4789 34.1224 89.5167 34.8623C89.894 35.1304 89.8643 35.2794 89.5564 35.5823C86.8104 38.2339 83.4686 39.4108 79.7295 39.7435C73.1699 40.3245 66.9331 37.0025 64.1226 31.302C59.8373 22.6171 63.9488 10.8487 75.896 9.20009C76.7749 9.07098 77.6588 9.03126 78.1256 8.98657Z" fill="white"/>
<path d="M15.926 21.9815C15.926 20.9735 15.9459 19.9704 15.9161 18.9624C15.9012 18.5056 16.0105 18.4957 16.3581 18.7191C19.104 20.4769 21.8699 22.2149 24.6109 23.9826C25.0181 24.2458 25.2763 24.2508 25.6735 23.9528C31.7166 19.4193 37.7796 14.9105 43.8228 10.3769C44.2548 10.0541 44.4484 10.0541 44.7563 10.511C45.6253 11.7822 46.4198 13.098 47.0901 14.4835C47.2292 14.7764 47.2043 14.9353 46.9362 15.1339C39.7758 20.467 32.6204 25.81 25.465 31.1579C25.2216 31.3416 25.0578 31.3069 24.8194 31.1579C21.9642 29.3355 19.109 27.5231 16.2389 25.7206C15.9658 25.5468 15.9161 25.3482 15.9211 25.0602C15.931 24.0323 15.926 23.0094 15.926 21.9815Z" fill="white"/>
<path d="M34.0558 47.8325C33.5344 45.9952 33.1173 44.1381 32.8044 42.2561C38.9171 39.2171 42.5618 34.3509 43.6245 27.5927C43.7188 27.0067 43.838 26.396 43.7734 25.82C43.6592 24.8119 44.0714 24.2161 44.8857 23.6748C46.1818 22.8108 47.3983 21.8276 48.6497 20.8991C48.8483 20.7501 49.032 20.5217 49.1115 21.0133C50.9239 32.5235 44.6673 43.562 34.1749 47.7878C34.1352 47.8076 34.0955 47.8176 34.0558 47.8325Z" fill="white"/>
<path d="M1.96729 17.9794C2.57805 15.7449 3.54635 13.6742 4.79768 11.7327C6.53067 12.4974 8.29346 13.1727 10.0811 13.8033C8.75029 15.6902 7.74227 17.7311 7.13151 19.9656C5.40844 19.3052 3.68538 18.6398 1.96729 17.9794Z" fill="white"/>
</svg>
